<svg xmlns="http://www.w3.org/2000/svg" viewBox="0 0 283.46 354.325" x="0px" y="0px"><title>instrument</title><g data-name="Ebene 2"><path d="M56.93,235.36A6,6,0,0,0,65,232.71l8.67-17.17c16.06,18.62,40.58,30.53,68.07,30.53s52-11.91,68.07-30.53l8.67,17.17a6,6,0,1,0,10.71-5.41l-11.44-22.65a78.26,78.26,0,0,0,11.51-37.93h.06v-47c0-45.47-39.22-82.34-87.59-82.34S54.14,74.27,54.14,119.74v47h.06a78.26,78.26,0,0,0,11.51,37.93L54.28,227.3A6,6,0,0,0,56.93,235.36Zm9.21-71.64c0-38.79,33.91-70.34,75.59-70.34s75.59,31.55,75.59,70.34-33.91,70.34-75.59,70.34S66.14,202.51,66.14,163.72ZM135.73,49.64V81.58A91.28,91.28,0,0,0,100.64,91V60.75A78.86,78.86,0,0,1,135.73,49.64Zm47.09,11.1V91a91.28,91.28,0,0,0-35.09-9.41V49.64A78.86,78.86,0,0,1,182.82,60.75Zm34.5,61.36a84.65,84.65,0,0,0-22.5-23.88V69.73c13.88,12.76,22.5,30.47,22.5,50ZM88.64,69.73V98.23a84.64,84.64,0,0,0-22.5,23.88v-2.37C66.14,100.19,74.76,82.49,88.64,69.73Z"/></g><text x="0" y="298.46" fill="#000000" font-size="5px" font-weight="bold" font-family="'Helvetica Neue', Helvetica, Arial-Unicode, Arial, Sans-serif">Created by WavoCC</text><text x="0" y="303.46" fill="#000000" font-size="5px" font-weight="bold" font-family="'Helvetica Neue', Helvetica, Arial-Unicode, Arial, Sans-serif">from the Noun Project</text></svg>