<svg xmlns="http://www.w3.org/2000/svg" xmlns:xlink="http://www.w3.org/1999/xlink" version="1.1" x="0px" y="0px" viewBox="0 0 100 125" enable-background="new 0 0 100 100" xml:space="preserve"><g><path d="M200.807,66.591c-4.188-4.474-4.076-6.438-3.783-11.684c0.092-1.615,0.195-3.447,0.195-5.705   c0-5.053-2.797-8.683-7.902-10.323V18.716c1.248-1.778,2.191-4.002,2.463-4.68c0.73-1.812,0.58-3.627-0.422-5.111   c-1.305-1.933-3.865-3.042-7.024-3.042s-5.72,1.109-7.025,3.042c-1.001,1.484-1.151,3.299-0.422,5.111   c0.268,0.665,1.177,2.816,2.388,4.575v20.269c-5.107,1.639-7.902,5.27-7.902,10.323c0,2.259,0.104,4.092,0.195,5.708   c0.295,5.245,0.406,7.207-3.781,11.681c-3.213,3.433-6.62,11.619-3.727,18.288c1.828,4.215,6.822,9.238,20.236,9.238   c13.416,0,18.41-5.023,20.238-9.238C207.426,78.211,204.02,70.023,200.807,66.591z M181.347,54.05   c0.192-0.097,0.358-0.234,0.489-0.403c0.701-0.479,1.548-0.76,2.459-0.76c0.908,0,1.752,0.278,2.453,0.753   c0.133,0.177,0.307,0.32,0.508,0.419c0.865,0.8,1.418,1.935,1.418,3.204c0,2.414-1.965,4.378-4.379,4.378   c-2.413,0-4.377-1.964-4.377-4.378C179.918,55.988,180.475,54.851,181.347,54.05z M184.295,50.021c-0.75,0-1.475,0.115-2.156,0.328   V21.069c0.121,0.024,0.24,0.049,0.361,0.049h3.664c0.096,0,0.191-0.023,0.287-0.039v29.269   C185.77,50.135,185.045,50.021,184.295,50.021z M179.683,10.528c0.753-1.114,2.491-1.78,4.65-1.78s3.899,0.666,4.649,1.78   c0.467,0.69,0.514,1.51,0.139,2.437c-1.227,3.051-2.615,4.893-3.156,5.288H182.7c-0.54-0.395-1.928-2.237-3.156-5.288   C179.17,12.038,179.217,11.218,179.683,10.528z M201.904,83.738c-2.131,4.915-8.221,7.514-17.609,7.514   c-9.387,0-15.477-2.599-17.608-7.515c-2.277-5.252,0.39-12.195,3.19-15.188c5.025-5.368,4.856-8.363,4.551-13.801   c-0.09-1.579-0.189-3.368-0.189-5.547c0-3.495,1.699-5.927,5.035-7.269v10.123c-1.366,1.318-2.221,3.163-2.221,5.207   c0,3.994,3.249,7.243,7.242,7.243c3.994,0,7.244-3.249,7.244-7.243c0-2.045-0.855-3.89-2.223-5.208V41.933   c3.336,1.342,5.037,3.775,5.037,7.27c0,2.178-0.102,3.967-0.191,5.545c-0.305,5.438-0.473,8.434,4.551,13.803   C201.516,71.543,204.184,78.486,201.904,83.738z"/><line fill="none" stroke="#000000" stroke-width="3" stroke-linecap="round" stroke-miterlimit="10" x1="176.729" y1="80.659" x2="191.863" y2="80.659"/></g><g><path fill="none" d="M78.617,74.756C87.035,72.601,92,69.63,92,66.829v-0.528c-2.483,2.383-7.17,4.451-13.383,6.011V74.756z"/><path fill="none" d="M21.333,46.345v-2.01c0-0.068,0.029-0.126,0.039-0.191C15.6,42.727,10.865,40.833,8,38.482v1.495   C9.97,42.454,14.754,44.674,21.333,46.345z"/><path fill="none" d="M8,66.301v0.528c0,2.795,4.945,5.761,13.333,7.914v-2.444C15.146,70.741,10.477,68.678,8,66.301z"/><path fill="none" d="M75.95,72.929c-6.899,1.473-15.355,2.358-24.616,2.437v2.496c9.622-0.082,18.059-1.043,24.715-2.498   c-0.061-0.151-0.099-0.314-0.099-0.486V72.929z"/><path fill="none" d="M24,72.918v1.959c0,0.169-0.039,0.327-0.096,0.476c6.664,1.461,15.117,2.427,24.763,2.509v-2.496   C39.384,75.287,30.909,74.397,24,72.918z"/><path fill="none" d="M75.95,46.979v-2.228c-7.355,1.542-16.051,2.372-24.616,2.451v2.287C60.482,49.406,69.017,48.479,75.95,46.979   z"/><path fill="none" d="M91.979,32.973C91.553,27.802,74.439,22.129,50,22.129S8.446,27.802,8.02,32.973   c5.558-5.305,22.017-9.056,41.98-9.056C69.963,23.917,86.422,27.667,91.979,32.973z"/><path fill="none" d="M50,44.212c23.157,0,39.745-5.093,41.786-10.026C87.176,28.942,69.914,24.917,50,24.917   c-19.914,0-37.176,4.026-41.785,9.269C10.255,39.119,26.843,44.212,50,44.212z"/><path fill="none" d="M48.667,49.489v-2.287c-8.585-0.079-17.3-0.913-24.667-2.461v2.228C30.943,48.474,39.495,49.406,48.667,49.489   z"/><path fill="none" d="M78.617,44.335v2.022c6.604-1.673,11.408-3.897,13.383-6.38v-1.495c-2.873,2.357-7.626,4.255-13.419,5.672   C78.59,44.216,78.617,44.271,78.617,44.335z"/><path fill="none" d="M78.617,50.001c0,0.735-0.599,1.333-1.334,1.333s-1.333-0.598-1.333-1.333v-1.948   c-6.899,1.472-15.355,2.358-24.616,2.437v1.844c0,0.735-0.599,1.333-1.334,1.333s-1.333-0.598-1.333-1.333v-1.844   C39.384,50.411,30.909,49.521,24,48.042v1.958c0,0.735-0.598,1.333-1.333,1.333s-1.333-0.598-1.333-1.333v-2.578   C15.146,45.865,10.477,43.802,8,41.425v23.429c1.97,2.477,6.754,4.696,13.333,6.368v-2.011c0-0.735,0.598-1.334,1.333-1.334   S24,68.476,24,69.211v2.634c6.943,1.505,15.495,2.438,24.667,2.521v-1.822c0-0.735,0.598-1.334,1.333-1.334   s1.334,0.599,1.334,1.334v1.822c9.148-0.083,17.683-1.011,24.616-2.51v-2.645c0-0.735,0.598-1.334,1.333-1.334   s1.334,0.599,1.334,1.334v2.022c6.604-1.673,11.408-3.896,13.383-6.38V41.425c-2.483,2.383-7.17,4.452-13.383,6.01V50.001z"/><path d="M8,38.482c-0.364-0.298-0.688-0.606-0.99-0.918c0.027,0.824,0.369,1.631,0.99,2.413V38.482z"/><path d="M8,66.301c-1.299-1.246-2-2.578-2-3.967h1c0,0.861,0.352,1.704,1,2.52V41.425c-1.299-1.246-2-2.578-2-3.967h0.91   c-0.154-0.165-0.304-0.331-0.44-0.5H6c0-0.187,0.021-0.372,0.046-0.557C5.365,35.392,5,34.314,5,33.17v33.659h3V66.301z"/><path d="M50,44.212c-23.157,0-39.744-5.093-41.785-10.026C7.429,35.079,7,36.007,7,36.958h-0.53c0.136,0.169,0.286,0.335,0.44,0.5   H7c0,0.036,0.009,0.07,0.01,0.106c0.302,0.312,0.626,0.62,0.99,0.918c2.866,2.351,7.6,4.245,13.372,5.661   c0.097-0.641,0.627-1.143,1.295-1.143c0.735,0,1.333,0.599,1.333,1.334v0.406c7.367,1.548,16.081,2.383,24.667,2.461v-0.536   c0-0.735,0.598-1.334,1.333-1.334s1.334,0.599,1.334,1.334v0.536c8.565-0.079,17.261-0.909,24.616-2.451v-0.417   c0-0.735,0.598-1.334,1.333-1.334c0.672,0,1.206,0.507,1.298,1.154c5.793-1.417,10.546-3.315,13.419-5.672v-4.043   c-0.067-0.085-0.141-0.169-0.215-0.253C89.744,39.119,73.156,44.212,50,44.212z"/><path d="M8.02,32.973C8.446,27.802,25.56,22.129,50,22.129s41.553,5.673,41.98,10.844c0.069,0.065,0.132,0.132,0.197,0.198H95   c0-9.12-23.186-14.042-45-14.042S5,24.05,5,33.17c0,1.144,0.365,2.221,1.046,3.231C6.207,35.206,6.884,34.057,8.02,32.973z"/><path d="M91.979,32.973c-5.558-5.305-22.017-9.056-41.98-9.056c-19.963,0-36.422,3.751-41.98,9.056   c-1.136,1.084-1.812,2.233-1.974,3.429C6.021,36.586,6,36.771,6,36.958h0.47H7c0-0.951,0.429-1.879,1.215-2.772   c4.609-5.243,21.872-9.269,41.785-9.269c19.915,0,37.176,4.026,41.786,9.269c0.074,0.084,0.147,0.168,0.215,0.253V33.17h0.177   C92.111,33.104,92.049,33.038,91.979,32.973z"/><path d="M78.617,46.357v1.078c6.213-1.559,10.899-3.627,13.383-6.01v-1.448C90.025,42.46,85.222,44.685,78.617,46.357z"/><path d="M24,46.969v1.074c6.909,1.479,15.384,2.369,24.667,2.447v-1C39.495,49.406,30.943,48.474,24,46.969z"/><path d="M51.334,49.489v1c9.261-0.078,17.717-0.964,24.616-2.437v-1.073C69.017,48.479,60.482,49.406,51.334,49.489z"/><path d="M21.333,46.345C14.754,44.674,9.97,42.454,8,39.977c-0.622-0.782-0.963-1.589-0.99-2.413C7.008,37.528,7,37.494,7,37.458   h-0.09H6c0,1.389,0.701,2.721,2,3.967c2.477,2.377,7.146,4.44,13.333,5.998V46.345z"/><path d="M78.617,74.756v0.121c0,0.734-0.599,1.332-1.334,1.332c-0.562,0-1.039-0.353-1.234-0.846   c-6.656,1.455-15.093,2.416-24.715,2.498v0.348c0,0.734-0.599,1.332-1.334,1.332s-1.333-0.598-1.333-1.332v-0.348   c-9.646-0.082-18.099-1.048-24.763-2.509c-0.193,0.499-0.671,0.856-1.237,0.856c-0.735,0-1.333-0.598-1.333-1.332v-0.134   C12.945,72.59,8,69.624,8,66.829H5c0,9.121,23.185,14.042,45,14.042s45-4.921,45-14.042h-3C92,69.63,87.035,72.601,78.617,74.756z"/><path d="M92.177,33.17H92v1.269v4.043v1.495v1.448v23.429c0.648-0.815,1-1.658,1-2.52h1c0,1.389-0.701,2.721-2,3.967v0.528h3V33.17   H92.177z"/><path d="M48.667,50.489v1.844c0,0.735,0.598,1.333,1.333,1.333s1.334-0.598,1.334-1.333v-1.844v-1v-2.287v-0.536   c0-0.735-0.599-1.334-1.334-1.334s-1.333,0.599-1.333,1.334v0.536v2.287V50.489z M50,46.333c0.184,0,0.333,0.15,0.333,0.334v5.666   c0,0.184-0.149,0.333-0.333,0.333s-0.333-0.149-0.333-0.333v-5.666C49.667,46.483,49.816,46.333,50,46.333z"/><path d="M21.333,46.345v1.078v2.578c0,0.735,0.598,1.333,1.333,1.333S24,50.736,24,50.001v-1.958v-1.074v-2.228v-0.406   c0-0.735-0.598-1.334-1.333-1.334c-0.667,0-1.198,0.501-1.295,1.143c-0.01,0.065-0.039,0.124-0.039,0.191V46.345z M22.667,44.001   c0.184,0,0.333,0.15,0.333,0.334v5.666c0,0.184-0.149,0.333-0.333,0.333s-0.333-0.149-0.333-0.333v-5.666   C22.333,44.151,22.482,44.001,22.667,44.001z"/><path d="M75.95,48.053v1.948c0,0.735,0.598,1.333,1.333,1.333s1.334-0.598,1.334-1.333v-2.566v-1.078v-2.022   c0-0.064-0.027-0.119-0.036-0.18c-0.092-0.646-0.626-1.154-1.298-1.154c-0.735,0-1.333,0.599-1.333,1.334v0.417v2.228V48.053z    M77.283,44.001c0.185,0,0.334,0.15,0.334,0.334v5.666c0,0.184-0.149,0.333-0.334,0.333c-0.184,0-0.333-0.149-0.333-0.333v-5.666   C76.95,44.151,77.1,44.001,77.283,44.001z"/><path d="M78.617,71.233v1.078c6.213-1.56,10.899-3.628,13.383-6.011c1.299-1.246,2-2.578,2-3.967h-1c0,0.861-0.352,1.704-1,2.52   C90.025,67.337,85.222,69.561,78.617,71.233z"/><path d="M75.95,72.929v-1.073c-6.934,1.499-15.468,2.427-24.616,2.51v1C60.595,75.287,69.051,74.401,75.95,72.929z"/><path d="M48.667,75.365v-1C39.495,74.282,30.943,73.35,24,71.845v1.073C30.909,74.397,39.384,75.287,48.667,75.365z"/><path d="M21.333,71.222C14.754,69.55,9.97,67.33,8,64.854c-0.648-0.815-1-1.658-1-2.52H6c0,1.389,0.701,2.721,2,3.967   c2.477,2.377,7.146,4.44,13.333,5.998V71.222z"/><path d="M51.334,74.365v-1.822c0-0.735-0.599-1.334-1.334-1.334s-1.333,0.599-1.333,1.334v1.822v1v2.496v0.348   c0,0.734,0.598,1.332,1.333,1.332s1.334-0.598,1.334-1.332v-0.348v-2.496V74.365z M50,78.541c-0.184,0-0.333-0.149-0.333-0.332   v-5.666c0-0.185,0.149-0.334,0.333-0.334s0.333,0.149,0.333,0.334v5.666C50.333,78.392,50.184,78.541,50,78.541z"/><path d="M24,72.918v-1.073v-2.634c0-0.735-0.598-1.334-1.333-1.334s-1.333,0.599-1.333,1.334v2.011v1.077v2.444v0.134   c0,0.734,0.598,1.332,1.333,1.332c0.566,0,1.044-0.357,1.237-0.856C23.961,75.204,24,75.046,24,74.877V72.918z M22.667,75.209   c-0.184,0-0.333-0.149-0.333-0.332v-5.666c0-0.185,0.149-0.334,0.333-0.334S23,69.026,23,69.211v5.666   C23,75.06,22.851,75.209,22.667,75.209z"/><path d="M78.617,71.233v-2.022c0-0.735-0.599-1.334-1.334-1.334s-1.333,0.599-1.333,1.334v2.645v1.073v1.948   c0,0.172,0.038,0.335,0.099,0.486c0.195,0.493,0.672,0.846,1.234,0.846c0.735,0,1.334-0.598,1.334-1.332v-0.121v-2.444V71.233z    M77.283,75.209c-0.184,0-0.333-0.149-0.333-0.332v-5.666c0-0.185,0.149-0.334,0.333-0.334c0.185,0,0.334,0.149,0.334,0.334v5.666   C77.617,75.06,77.468,75.209,77.283,75.209z"/></g><text x="0" y="115" fill="#000000" font-size="5px" font-weight="bold" font-family="'Helvetica Neue', Helvetica, Arial-Unicode, Arial, Sans-serif">Created by Korokoro</text><text x="0" y="120" fill="#000000" font-size="5px" font-weight="bold" font-family="'Helvetica Neue', Helvetica, Arial-Unicode, Arial, Sans-serif">from the Noun Project</text></svg>