<svg xmlns="http://www.w3.org/2000/svg" viewBox="0 0 283.46 354.325" x="0px" y="0px"><title>instrument</title><g data-name="Ebene 2"><path d="M135.87,189.15v14a6,6,0,0,0,12,0V189.14c41.64-1.94,74.45-23.42,74.45-49.64S189.5,91.8,147.87,89.86V80.26a6,6,0,1,0-12,0v9.58C94.1,91.7,61.15,113.22,61.15,139.5S94.1,187.3,135.87,189.15Zm6-68.45a6,6,0,0,0,6-6V101.86c17,.86,32.61,5.26,44.54,12.63,15.58,9.63,17.91,19.8,17.91,25s-2.33,15.38-17.91,25c-13.35,8.25-31.35,12.79-50.67,12.79a112.51,112.51,0,0,1-28.65-3.59l12.45-25.52a10.3,10.3,0,0,0-4.33-13.47l-.14-.08a10.33,10.33,0,0,0-10.72.16L79.25,154.61c-5.1-6.14-6.1-11.7-6.1-15.11,0-5.21,2.33-15.38,17.91-25,12-7.41,27.73-11.82,44.81-12.64V114.7A6,6,0,0,0,141.87,120.7Z"/></g><text x="0" y="298.46" fill="#000000" font-size="5px" font-weight="bold" font-family="'Helvetica Neue', Helvetica, Arial-Unicode, Arial, Sans-serif">Created by WavoCC</text><text x="0" y="303.46" fill="#000000" font-size="5px" font-weight="bold" font-family="'Helvetica Neue', Helvetica, Arial-Unicode, Arial, Sans-serif">from the Noun Project</text></svg>