<svg xmlns="http://www.w3.org/2000/svg" viewBox="0 0 283.46 354.325" x="0px" y="0px"><title>instrument</title><g data-name="Ebene 2"><path d="M213.36,106.2c0-24.45-32.07-44.27-71.63-44.27S70.1,81.75,70.1,106.2h0v71.07c0,24.45,32.07,44.27,71.63,44.27s71.63-19.82,71.63-44.27V106.2Zm-131.26,0c0-4.35,2-12.87,15.29-21.09C108.88,78,125,73.93,141.73,73.93S174.58,78,186.07,85.1c13.3,8.22,15.29,16.75,15.29,21.09s-2,12.87-15.29,21.09c-1.36.84-2.79,1.64-4.28,2.39a6,6,0,0,0-3.78,1.76c-10.44,4.51-23.2,7-36.28,7-16.69,0-32.85-4.07-44.34-11.17C84.09,119.07,82.1,110.55,82.1,106.2Zm23.58,96.42a6,6,0,0,0,.19-1.49V144.51a104.63,104.63,0,0,0,29.21,5.75v59A90.67,90.67,0,0,1,105.68,202.62Zm41.4-52.29A105.85,105.85,0,0,0,176.29,145v56.15a6,6,0,0,0,.34,2,92.14,92.14,0,0,1-29.55,6.28Zm-65-19.61a60.51,60.51,0,0,0,11.77,8.41V196c-10.15-7.45-11.77-14.8-11.77-18.73Zm106.19,66.2V139.83a61.57,61.57,0,0,0,13.08-9.1v46.55C201.36,181.36,199.6,189.16,188.29,196.92Z"/></g><text x="0" y="298.46" fill="#000000" font-size="5px" font-weight="bold" font-family="'Helvetica Neue', Helvetica, Arial-Unicode, Arial, Sans-serif">Created by WavoCC</text><text x="0" y="303.46" fill="#000000" font-size="5px" font-weight="bold" font-family="'Helvetica Neue', Helvetica, Arial-Unicode, Arial, Sans-serif">from the Noun Project</text></svg>